Coordinates
version=1
nRows=24
nColumns=22
inDegrees=yes

Units are S.I. units (second, meters, Newtons, ...)
If the header above contains a line with 'inDegrees', this indicates whether rotational values are in degrees (yes) or radians (no).

endheader
time	pelvis_tilt	pelvis_list	pelvis_rotation	pelvis_tx	pelvis_ty	pelvis_tz	hip_flexion_r	hip_adduction_r	hip_rotation_r	knee_angle_r	ankle_angle_r	subtalar_angle_r	hip_flexion_l	hip_adduction_l	hip_rotation_l	knee_angle_l	ankle_angle_l	subtalar_angle_l	lumbar_extension	lumbar_bending	lumbar_rotation
      2.10000000	     -0.22485450	      4.97850502	    129.25134254	     -0.58180967	      0.99341065	      0.47591815	     19.40270522	      8.07548008	    -20.37070286	    -23.36306563	      3.46566760	    -11.02035449	    -10.96049484	     -3.82235270	    -13.69192043	    -30.08277756	     14.14999543	     11.19740384	    -15.02400642	      5.77502398	     -1.89033608
      2.11000000	     -0.03824031	      5.04719042	    128.93206107	     -0.58572088	      0.99421712	      0.46897571	     18.96383579	      8.45990364	    -20.08667499	    -23.32616226	      3.69499232	    -11.38624541	    -10.24996135	     -4.21781963	    -13.16841342	    -32.10298944	     12.61040464	     12.18325885	    -14.85917966	      5.99024380	     -1.95777493
      2.12000000	      0.12158891	      5.08331910	    128.63845041	     -0.58950873	      0.99505226	      0.46213481	     18.50538793	      8.79312714	    -19.85339195	    -23.23883401	      3.97979454	    -11.67289020	     -9.42636839	     -4.59304282	    -12.57804315	    -34.23580706	     10.99218753	     13.05933909	    -14.69750435	      6.15656271	     -2.02494923
      2.13000000	      0.27314800	      5.09447230	    128.39220696	     -0.59319320	      0.99588277	      0.45544384	     18.03439554	      9.09284368	    -19.66396080	    -23.08613471	      4.25464086	    -11.86372266	     -8.47691493	     -4.97111810	    -11.91241868	    -36.47806192	      9.40989054	     13.66548067	    -14.53288420	      6.30396680	     -2.12975799
      2.14000000	      0.39973808	      5.08961712	    128.15798943	     -0.59676570	      0.99668820	      0.44888753	     17.56111533	      9.35198737	    -19.49243568	    -22.92839295	      4.55243571	    -11.99309696	     -7.44117843	     -5.33544571	    -11.23854642	    -38.79366390	      7.90063044	     14.04362708	    -14.38851044	      6.41966900	     -2.20687724
      2.15000000	      0.51004862	      5.05638384	    127.91380750	     -0.60016623	      0.99740174	      0.44244741	     17.11745272	      9.57985604	    -19.29468003	    -22.78988702	      4.89317519	    -12.09113114	     -6.31099477	     -5.68211273	    -10.58038608	    -41.16581037	      6.55026655	     14.27536269	    -14.25353618	      6.49183786	     -2.25201174
      2.16000000	      0.60989928	      5.01106205	    127.65055971	     -0.60342014	      0.99802112	      0.43613622	     16.69842536	      9.78896140	    -19.07501166	    -22.67756291	      5.23922849	    -12.16508626	     -5.10756489	     -6.02461383	     -9.96523484	    -43.56791106	      5.39801072	     14.40173822	    -14.13887249	      6.54713947	     -2.25481404
      2.17000000	      0.69562134	      4.95738247	    127.35206251	     -0.60649746	      0.99854936	      0.42992559	     16.29834476	      9.98706318	    -18.80917678	    -22.59179598	      5.59635290	    -12.23062688	     -3.85609884	     -6.35931478	     -9.40760942	    -45.95575736	      4.46936234	     14.51009612	    -14.05221004	      6.57719162	     -2.20402593
      2.18000000	      0.76558879	      4.89141711	    127.00921015	     -0.60939183	      0.99898605	      0.42381686	     15.92558730	     10.16768616	    -18.50528773	    -22.54695982	      5.96468380	    -12.29912562	     -2.56866635	     -6.68104929	     -8.91803915	    -48.28841005	      3.76822458	     14.66874995	    -13.99265126	      6.57866992	     -2.09610149
      2.19000000	      0.83329674	      4.86534762	    126.62459874	     -0.61210130	      0.99941572	      0.41776664	     15.51069253	     10.38833779	    -18.15082088	    -22.47286021	      6.28299266	    -12.36493430	     -1.30445297	     -7.03560935	     -8.48354529	    -50.51358295	      3.33836721	     14.82440193	    -13.99415109	      6.59683553	     -1.92517745
      2.20000000	      0.87632490	      4.86102427	    126.17846238	     -0.61461512	      0.99983858	      0.41177580	     15.08055202	     10.60468486	    -17.77354411	    -22.43492566	      6.61105200	    -12.43337455	     -0.07750674	     -7.40158143	     -8.15287178	    -52.59421322	      3.11363915	     14.95360546	    -14.05790557	      6.59825774	     -1.68530300
      2.21000000	      0.90853574	      4.79602143	    125.69801817	     -0.61692300	      1.00019034	      0.40586165	     14.69558406	     10.78950215	    -17.31163459	    -22.38382072	      6.92226197	    -12.50732557	      1.19180257	     -7.70943023	     -7.81946068	    -54.49461671	      3.10119565	     15.06023786	    -14.08880731	      6.53567759	     -1.42849054
      2.22000000	      0.91498859	      4.82904287	    125.15833473	     -0.61905077	      1.00068070	      0.39993380	     14.19382802	     11.01968650	    -16.84602439	    -22.30907078	      7.22433020	    -12.56469350	      2.32190319	     -8.08762372	     -7.59294780	    -56.17932352	      3.24326402	     15.01554364	    -14.24297903	      6.50143334	     -1.08242153
      2.23000000	      0.92625719	      4.82987694	    124.57726967	     -0.62096197	      1.00114515	      0.39403422	     13.71307605	     11.24695870	    -16.31472367	    -22.20956002	      7.48939000	    -12.61541176	      3.46082934	     -8.45362728	     -7.38259066	    -57.64837470	      3.49607231	     14.86842028	    -14.37233342	      6.43348119	     -0.70760500
      2.24000000	      0.95217068	      4.78412827	    123.94809750	     -0.62265469	      1.00157303	      0.38812918	     13.26457288	     11.47252751	    -15.71889260	    -22.07329766	      7.67731956	    -12.65224816	      4.61564702	     -8.80681317	     -7.18678553	    -58.88361996	      3.80150473	     14.53212369	    -14.44893584	      6.32850128	     -0.28187043
      2.25000000	      0.96837310	      4.80922646	    123.26111079	     -0.62414785	      1.00208447	      0.38218385	     12.73847510	     11.73568908	    -15.09916184	    -21.93486610	      7.90746349	    -12.67863938	      5.65103484	     -9.21794388	     -7.04611082	    -59.88387686	      4.15913268	     14.19353945	    -14.60362768	      6.24366317	      0.18687521
      2.26000000	      0.99733792	      4.77024216	    122.52092564	     -0.62542946	      1.00255800	      0.37620462	     12.24816013	     11.98834335	    -14.38441723	    -21.74604620	      8.03717710	    -12.67457105	      6.69801113	     -9.59092396	     -6.89524955	    -60.63085443	      4.48670693	     13.50649905	    -14.68194887	      6.10801382	      0.69191866
      2.27000000	      1.03357539	      4.77238687	    121.73118492	     -0.62655561	      1.00307475	      0.37017471	     11.70044555	     12.27030625	    -13.66174476	    -21.52791105	      8.19753407	    -12.66338143	      7.65045278	     -9.99411184	     -6.74240820	    -61.13829323	      4.84659831	     12.84429138	    -14.78816337	      5.99015533	      1.25892672
      2.28000000	      1.08292821	      4.77232703	    120.89048332	     -0.62748666	      1.00358707	      0.36415137	     11.14478097	     12.56769345	    -12.86970480	    -21.28583443	      8.28569197	    -12.64229815	      8.55609124	    -10.39344900	     -6.56443330	    -61.41509984	      5.19866787	     12.17171294	    -14.88712656	      5.86917551	      1.85025002
      2.29000000	      1.14934615	      4.76978852	    120.02063398	     -0.62829749	      1.00407685	      0.35813389	     10.57568979	     12.87188439	    -12.07360919	    -21.00909482	      8.38128319	    -12.61428697	      9.41464327	    -10.78492761	     -6.33859997	    -61.46506997	      5.56839265	     11.40188192	    -14.96525235	      5.75765468	      2.46397119
      2.30000000	      1.23492008	      4.76227436	    119.11554712	     -0.62895033	      1.00453674	      0.35216902	     10.00669331	     13.18863698	    -11.22761984	    -20.71207828	      8.41948201	    -12.58562749	     10.23376421	    -11.16606679	     -6.06190630	    -61.30295475	      5.93431358	     10.65740522	    -15.03305752	      5.65693240	      3.08869850
      2.31000000	      1.34313482	      4.74408033	    118.18531783	     -0.62950239	      1.00495564	      0.34622018	      9.42785183	     13.51158495	    -10.38227772	    -20.36886517	      8.43961681	    -12.55678741	     11.01353070	    -11.54012129	     -5.74206309	    -60.93298895	      6.31118705	      9.91339256	    -15.07037323	      5.57147775	      3.71964713
      2.32000000	      1.46934540	      4.72908555	    117.24423583	     -0.62996423	      1.00533265	      0.34038502	      8.84915977	     13.84126856	     -9.51371375	    -20.02052528	      8.46642285	    -12.52836339	     11.74978686	    -11.89474734	     -5.34741428	    -60.37301976	      6.71774956	      9.12185722	    -15.11203589	      5.51691413	      4.33377178
      2.33000000	      1.61214476	      4.70951502	    116.29485591	     -0.63035821	      1.00565964	      0.33464059	      8.27038603	     14.16967083	     -8.64917705	    -19.65692268	      8.49290653	    -12.50208583	     12.44854714	    -12.22917004	     -4.89458276	    -59.63867460	      7.15138532	      8.33685328	    -15.14586063	      5.48647182	      4.93586641
